g default
usemtl default
v 8.70079 7.07625 0 
v 9.28857 6.26724 0 
v 8.47955 5.67945 0 
v 7.89177 6.48847 0 
v 8.70079 7.07625 1 
v 7.89177 6.48847 1 
v 8.47955 5.67945 1 
v 9.28857 6.26724 1 
v 3.26915 10.6406 0 
v 4.22021 10.3316 0 
v 3.91119 9.38053 0 
v 2.96013 9.68955 0 
v 3.26915 10.6406 1 
v 2.96013 9.68955 1 
v 3.91119 9.38053 1 
v 4.22021 10.3316 1 
v -3.22021 10.3316 0 
v -2.26915 10.6406 0 
v -1.96013 9.68955 0 
v -2.91119 9.38053 0 
v -3.22021 10.3316 1 
v -2.91119 9.38053 1 
v -1.96013 9.68955 1 
v -2.26915 10.6406 1 
v -8.28857 6.26724 0 
v -7.70079 7.07625 0 
v -6.89177 6.48847 0 
v -7.47956 5.67945 0 
v -8.28857 6.26724 1 
v -7.47956 5.67945 1 
v -6.89177 6.48847 1 
v -7.70079 7.07625 1 
v -10 6.55651e-07 0 
v -10 1 0 
v -9 1 0 
v -9 6.83469e-07 0 
v -10 6.55651e-07 1 
v -9 6.83469e-07 1 
v -9 1 1 
v -10 1 1 
v -7.70079 -6.07625 0 
v -8.28857 -5.26724 0 
v -7.47956 -4.67945 0 
v -6.89177 -5.48847 0 
v -7.70079 -6.07625 1 
v -6.89177 -5.48847 1 
v -7.47956 -4.67945 1 
v -8.28857 -5.26724 1 
v -2.26915 -9.6406 0 
v -3.22021 -9.33158 0 
v -2.91119 -8.38053 0 
v -1.96013 -8.68955 0 
v -2.26915 -9.6406 1 
v -1.96013 -8.68955 1 
v -2.91119 -8.38053 1 
v -3.22021 -9.33158 1 
v 4.22021 -9.33159 0 
v 3.26915 -9.6406 0 
v 2.96013 -8.68955 0 
v 3.91119 -8.38053 0 
v 4.22021 -9.33159 1 
v 3.91119 -8.38053 1 
v 2.96013 -8.68955 1 
v 3.26915 -9.6406 1 
v 9.28857 -5.26724 0 
v 8.70079 -6.07626 0 
v 7.89177 -5.48847 0 
v 8.47956 -4.67945 0 
v 9.28857 -5.26724 1 
v 8.47956 -4.67945 1 
v 7.89177 -5.48847 1 
v 8.70079 -6.07626 1 
v 11 0.999999 0 
v 11 -9.53674e-07 0 
v 10 -9.53674e-07 0 
v 10 0.999999 0 
v 11 0.999999 1 
v 10 0.999999 1 
v 10 -9.53674e-07 1 
v 11 -9.53674e-07 1 
vn 0 0 -1 
vn 0 0 1 
vn 0.809017 0.587785 0 
vn -0.809017 -0.587785 0 
vn -0.587785 0.809017 0 
vn 0.587785 -0.809017 0 
vn 0 0 -1 
vn 0 0 1 
vn 0.309017 0.951056 0 
vn -0.309017 -0.951056 0 
vn -0.951057 0.309017 0 
vn 0.951057 -0.309017 0 
vn 0 0 -1 
vn 0 0 1 
vn -0.309017 0.951056 0 
vn 0.309017 -0.951056 0 
vn -0.951056 -0.309017 0 
vn 0.951056 0.309017 0 
vn 0 0 -1 
vn 0 0 1 
vn -0.809017 0.587785 0 
vn 0.809017 -0.587785 0 
vn -0.587785 -0.809017 0 
vn 0.587785 0.809017 0 
vn 0 0 -1 
vn 0 0 1 
vn -1 0 0 
vn 1 0 0 
vn 2.78181e-08 -1 0 
vn 0 1 0 
vn 0 0 -1 
vn 0 0 1 
vn -0.809017 -0.587785 0 
vn 0.809017 0.587785 0 
vn 0.587785 -0.809017 0 
vn -0.587785 0.809017 0 
vn 0 0 -1 
vn 0 0 1 
vn -0.309017 -0.951056 0 
vn 0.309017 0.951056 0 
vn 0.951057 -0.309017 0 
vn -0.951056 0.309017 0 
vn 0 0 -1 
vn 0 0 1 
vn 0.309017 -0.951056 0 
vn -0.309017 0.951056 0 
vn 0.951057 0.309017 0 
vn -0.951057 -0.309017 0 
vn 0 0 -1 
vn 0 0 1 
vn 0.809017 -0.587785 0 
vn -0.809017 0.587785 0 
vn 0.587785 0.809017 0 
vn -0.587785 -0.809017 0 
vn 0 0 -1 
vn 0 0 1 
vn 1 0 0 
vn -1 0 0 
vn 0 1 0 
vn 0 -1 0 
f 1//1 2//1 3//1 4//1 
f 5//2 6//2 7//2 8//2 
f 1//3 5//3 8//3 2//3 
f 4//4 3//4 7//4 6//4 
f 1//5 4//5 6//5 5//5 
f 2//6 8//6 7//6 3//6 
f 9//7 10//7 11//7 12//7 
f 13//8 14//8 15//8 16//8 
f 9//9 13//9 16//9 10//9 
f 12//10 11//10 15//10 14//10 
f 9//11 12//11 14//11 13//11 
f 10//12 16//12 15//12 11//12 
f 17//13 18//13 19//13 20//13 
f 21//14 22//14 23//14 24//14 
f 17//15 21//15 24//15 18//15 
f 20//16 19//16 23//16 22//16 
f 17//17 20//17 22//17 21//17 
f 18//18 24//18 23//18 19//18 
f 25//19 26//19 27//19 28//19 
f 29//20 30//20 31//20 32//20 
f 25//21 29//21 32//21 26//21 
f 28//22 27//22 31//22 30//22 
f 25//23 28//23 30//23 29//23 
f 26//24 32//24 31//24 27//24 
f 33//25 34//25 35//25 36//25 
f 37//26 38//26 39//26 40//26 
f 33//27 37//27 40//27 34//27 
f 36//28 35//28 39//28 38//28 
f 33//29 36//29 38//29 37//29 
f 34//30 40//30 39//30 35//30 
f 41//31 42//31 43//31 44//31 
f 45//32 46//32 47//32 48//32 
f 41//33 45//33 48//33 42//33 
f 44//34 43//34 47//34 46//34 
f 41//35 44//35 46//35 45//35 
f 42//36 48//36 47//36 43//36 
f 49//37 50//37 51//37 52//37 
f 53//38 54//38 55//38 56//38 
f 49//39 53//39 56//39 50//39 
f 52//40 51//40 55//40 54//40 
f 49//41 52//41 54//41 53//41 
f 50//42 56//42 55//42 51//42 
f 57//43 58//43 59//43 60//43 
f 61//44 62//44 63//44 64//44 
f 57//45 61//45 64//45 58//45 
f 60//46 59//46 63//46 62//46 
f 57//47 60//47 62//47 61//47 
f 58//48 64//48 63//48 59//48 
f 65//49 66//49 67//49 68//49 
f 69//50 70//50 71//50 72//50 
f 65//51 69//51 72//51 66//51 
f 68//52 67//52 71//52 70//52 
f 65//53 68//53 70//53 69//53 
f 66//54 72//54 71//54 67//54 
f 73//55 74//55 75//55 76//55 
f 77//56 78//56 79//56 80//56 
f 73//57 77//57 80//57 74//57 
f 76//58 75//58 79//58 78//58 
f 73//59 76//59 78//59 77//59 
f 74//60 80//60 79//60 75//60 
